<svg xmlns="http://www.w3.org/2000/svg" width="50" height="50" viewBox="0 0 50 50">
  <g fill="none" fill-rule="evenodd" stroke="#8757FB" stroke-width="1.455" transform="translate(5 5)">
    <polyline stroke-linecap="round" stroke-linejoin="round" points="35.636 27.688 31.117 34.182 27.636 31.324"/>
    <path d="M40,31.2727273 C40,36.0923636 36.0923636,40 31.2727273,40 C26.4530909,40 22.5454545,36.0923636 22.5454545,31.2727273 C22.5454545,26.4530909 26.4530909,22.5454545 31.2727273,22.5454545 C36.0923636,22.5454545 40,26.4530909 40,31.2727273 Z"/>
    <path stroke-linecap="round" stroke-linejoin="round" d="M18.9090909 8.72727273L32 8.72727273M18.9090909 18.9090909L32 18.9090909M18.9090909 29.8181818L22.5454545 29.8181818"/>
    <polyline stroke-linecap="round" stroke-linejoin="round" points="13.767 5.091 8.78 10.909 5.455 8.415"/>
    <polyline stroke-linecap="round" stroke-linejoin="round" points="13.767 15.273 8.78 21.091 5.455 18.597"/>
    <polyline stroke-linecap="round" stroke-linejoin="round" points="13.767 26.182 8.78 31.999 5.455 29.505"/>
    <path stroke-linecap="round" stroke-linejoin="round" d="M22.5454545,31.2727273 C22.5454545,26.4530909 26.4530909,22.5454545 31.2727273,22.5454545 C33.8829091,22.5454545 36.2189091,23.6974545 37.8181818,25.5134545 L37.8181818,8.12727273 C37.8181818,3.63854545 34.1796364,0 29.6901818,0 L8.128,0 C3.63927273,0 0,3.63854545 0,8.12727273 L0,29.6901818 C0,34.1789091 3.63927273,37.8181818 8.128,37.8181818 L25.5134545,37.8181818 C23.6974545,36.2189091 22.5454545,33.8829091 22.5454545,31.2727273 Z"/>
  </g>
</svg>
