<svg xmlns="http://www.w3.org/2000/svg" width="50" height="50" viewBox="0 0 50 50">
  <g fill="#8757FB" fill-rule="evenodd" transform="translate(5 5)">
    <path d="M21.171375,34.6665455 L10.4330357,34.6665455 C10.0618393,34.6665455 9.76166071,34.3683636 9.76166071,33.9996364 L9.76166071,25.9996364 C9.76166071,25.6316364 10.0618393,25.3334545 10.4330357,25.3334545 L21.171375,25.3334545 C21.5425714,25.3334545 21.8420179,25.6316364 21.8420179,25.9996364 L21.8420179,33.9996364 C21.8420179,34.3683636 21.5425714,34.6665455 21.171375,34.6665455 Z M11.1044107,33.3334545 L20.5,33.3334545 L20.5,26.6665455 L11.1044107,26.6665455 L11.1044107,33.3334545 Z"/>
    <path d="M15.8018393 30.6665455C15.6605357 30.6665455 15.5185 30.6221818 15.3991607 30.5334545L10.0303571 26.5334545C9.79973214 26.3618182 9.70528571 26.0614545 9.79680357 25.7894545 9.88758929 25.5167273 10.1431071 25.3334545 10.4330357 25.3334545L21.171375 25.3334545C21.4605714 25.3334545 21.7168214 25.5167273 21.8076071 25.7894545 21.899125 26.0614545 21.8046786 26.3618182 21.5740536 26.5334545L16.20525 30.5334545C16.0851786 30.6221818 15.9431429 30.6665455 15.8018393 30.6665455zM12.4464286 26.6665455L15.8018393 29.1661818 19.1579821 26.6665455 12.4464286 26.6665455zM25.8688036 18.6665455L5.734875 18.6665455C5.36367857 18.6665455 5.06423214 18.3683636 5.06423214 17.9996364L5.06423214 12.6665455C5.06423214 12.2978182 5.36367857 11.9996364 5.734875 11.9996364L25.8688036 11.9996364C26.24 11.9996364 26.5401786 12.2978182 26.5401786 12.6665455L26.5401786 17.9996364C26.5401786 18.3683636 26.24 18.6665455 25.8688036 18.6665455zM6.40625 17.3334545L25.1981607 17.3334545 25.1981607 13.3334545 6.40625 13.3334545 6.40625 17.3334545z"/>
    <path d="M25.8688036,16 L5.734875,16 C5.36367857,16 5.06423214,15.7018182 5.06423214,15.3330909 C5.06423214,14.9650909 5.36367857,14.6669091 5.734875,14.6669091 L25.8688036,14.6669091 C26.24,14.6669091 26.5401786,14.9650909 26.5401786,15.3330909 C26.5401786,15.7018182 26.24,16 25.8688036,16"/>
    <path d="M30.5669643,40 L1.03744643,40 C0.66625,40 0.366071429,39.7018182 0.366071429,39.3330909 L0.366071429,15.3330909 C0.366071429,6.87781818 7.28994643,0 15.8018393,0 C24.3137321,0 31.2383393,6.87781818 31.2383393,15.3330909 L31.2383393,39.3330909 C31.2383393,39.7018182 30.9381607,40 30.5669643,40 Z M1.70808929,38.6669091 L29.8955893,38.6669091 L29.8955893,15.3330909 C29.8955893,7.61381818 23.5728036,1.33309091 15.8018393,1.33309091 C8.03160714,1.33309091 1.70808929,7.61381818 1.70808929,15.3330909 L1.70808929,38.6669091 Z"/>
    <path d="M39.9625536 40L30.5669643 40C30.1957679 40 29.8955893 39.7018182 29.8955893 39.3330909 29.8955893 38.9643636 30.1957679 38.6669091 30.5669643 38.6669091L39.2919107 38.6669091 39.2919107 15.3330909C39.2919107 7.61381818 32.9683929 1.33309091 25.1981607 1.33309091L15.8018393 1.33309091C15.4306429 1.33309091 15.1311964 1.03490909 15.1311964.666909091 15.1311964.298181818 15.4306429 0 15.8018393 0L25.1981607 0C33.7100536 0 40.6339286 6.87781818 40.6339286 15.3330909L40.6339286 39.3330909C40.6339286 39.7018182 40.33375 40 39.9625536 40M4.39285714 24L1.03744643 24C.66625 24 .366071429 23.7018182.366071429 23.3330909.366071429 22.9643636.66625 22.6669091 1.03744643 22.6669091L4.39285714 22.6669091C4.76405357 22.6669091 5.06423214 22.9643636 5.06423214 23.3330909 5.06423214 23.7018182 4.76405357 24 4.39285714 24M3.05083929 26.6665455L1.03744643 26.6665455C.66625 26.6665455.366071429 26.3683636.366071429 25.9996364.366071429 25.6316364.66625 25.3334545 1.03744643 25.3334545L3.05083929 25.3334545C3.42203571 25.3334545 3.72148214 25.6316364 3.72148214 25.9996364 3.72148214 26.3683636 3.42203571 26.6665455 3.05083929 26.6665455"/>
    <path d="M39.9625536 37.3334545L36.6071429 37.3334545C36.2359464 37.3334545 35.9357679 37.0352727 35.9357679 36.6665455 35.9357679 36.2978182 36.2359464 36.0003636 36.6071429 36.0003636L39.9625536 36.0003636C40.33375 36.0003636 40.6339286 36.2978182 40.6339286 36.6665455 40.6339286 37.0352727 40.33375 37.3334545 39.9625536 37.3334545M39.9625536 34.6665455L33.922375 34.6665455C33.5511786 34.6665455 33.2517321 34.3683636 33.2517321 33.9996364 33.2517321 33.6316364 33.5511786 33.3334545 33.922375 33.3334545L39.9625536 33.3334545C40.33375 33.3334545 40.6339286 33.6316364 40.6339286 33.9996364 40.6339286 34.3683636 40.33375 34.6665455 39.9625536 34.6665455"/>
  </g>
</svg>
