<svg xmlns="http://www.w3.org/2000/svg" width="50" height="50" viewBox="0 0 50 50">
  <g fill="#8757FB" fill-rule="evenodd" transform="translate(3 5)">
    <path d="M41.8,40 L2.2,40 C0.987066667,40 0,39.0210909 0,37.8181818 L0,6.54545455 C0,6.144 0.328533333,5.81818182 0.733333333,5.81818182 L43.2666667,5.81818182 C43.6714667,5.81818182 44,6.144 44,6.54545455 L44,37.8181818 C44,39.0210909 43.0129333,40 41.8,40 Z M1.46666667,7.27272727 L1.46666667,37.8181818 C1.46666667,38.2189091 1.79593333,38.5454545 2.2,38.5454545 L41.8,38.5454545 C42.2040667,38.5454545 42.5333333,38.2189091 42.5333333,37.8181818 L42.5333333,7.27272727 L1.46666667,7.27272727 Z"/>
    <path d="M43.2666667,7.27272727 L0.733333333,7.27272727 C0.328533333,7.27272727 0,6.94690909 0,6.54545455 L0,2.18181818 C0,0.978909091 0.987066667,0 2.2,0 L41.8,0 C43.0129333,0 44,0.978909091 44,2.18181818 L44,6.54545455 C44,6.94690909 43.6714667,7.27272727 43.2666667,7.27272727 Z M1.46666667,5.81818182 L42.5333333,5.81818182 L42.5333333,2.18181818 C42.5333333,1.78109091 42.2040667,1.45454545 41.8,1.45454545 L2.2,1.45454545 C1.79593333,1.45454545 1.46666667,1.78109091 1.46666667,2.18181818 L1.46666667,5.81818182 Z"/>
    <path d="M4.4 3.63636364C4.4 4.03781818 4.07146667 4.36363636 3.66666667 4.36363636 3.26186667 4.36363636 2.93333333 4.03781818 2.93333333 3.63636364 2.93333333 3.23490909 3.26186667 2.90909091 3.66666667 2.90909091 4.07146667 2.90909091 4.4 3.23490909 4.4 3.63636364M7.33333333 3.63636364C7.33333333 4.03781818 7.0048 4.36363636 6.6 4.36363636 6.1952 4.36363636 5.86666667 4.03781818 5.86666667 3.63636364 5.86666667 3.23490909 6.1952 2.90909091 6.6 2.90909091 7.0048 2.90909091 7.33333333 3.23490909 7.33333333 3.63636364M10.2666667 3.63636364C10.2666667 4.03781818 9.93813333 4.36363636 9.53333333 4.36363636 9.12853333 4.36363636 8.8 4.03781818 8.8 3.63636364 8.8 3.23490909 9.12853333 2.90909091 9.53333333 2.90909091 9.93813333 2.90909091 10.2666667 3.23490909 10.2666667 3.63636364M11.7333333 18.1818182C11.5456 18.1818182 11.3578667 18.1105455 11.2148667 17.9687273 10.9281333 17.6843636 10.9281333 17.2247273 11.2148667 16.9403636L14.3630667 13.8181818 11.2148667 10.696C10.9281333 10.4116364 10.9281333 9.952 11.2148667 9.66763636 11.5016 9.38327273 11.9650667 9.38327273 12.2518 9.66763636L15.9184667 13.304C16.2052 13.5883636 16.2052 14.048 15.9184667 14.3323636L12.2518 17.9687273C12.1088 18.1105455 11.9210667 18.1818182 11.7333333 18.1818182M5.86666667 14.5454545L4.4 14.5454545C3.9952 14.5454545 3.66666667 14.2196364 3.66666667 13.8181818 3.66666667 13.4167273 3.9952 13.0909091 4.4 13.0909091L5.86666667 13.0909091C6.27146667 13.0909091 6.6 13.4167273 6.6 13.8181818 6.6 14.2196364 6.27146667 14.5454545 5.86666667 14.5454545"/>
    <path d="M10.2666667,14.5454545 L8.8,14.5454545 C8.3952,14.5454545 8.06666667,14.2196364 8.06666667,13.8181818 C8.06666667,13.4167273 8.3952,13.0909091 8.8,13.0909091 L10.2666667,13.0909091 C10.6714667,13.0909091 11,13.4167273 11,13.8181818 C11,14.2196364 10.6714667,14.5454545 10.2666667,14.5454545"/>
  </g>
</svg>
