<svg xmlns="http://www.w3.org/2000/svg" width="50" height="50" viewBox="0 0 50 50">
  <g fill="none" fill-rule="evenodd" stroke="#8757FB" stroke-linecap="round" stroke-linejoin="round" stroke-width="1.455" transform="translate(5 5)">
    <path d="M13.1785714,2.90909091 L10.9821429,2.90909091 L13.1785714,2.90909091 Z"/>
    <polyline points="0 10.909 0 2.909 10.982 2.909"/>
    <polyline points="30.018 2.909 41 2.909 41 10.909"/>
    <polyline points="30.018 2.909 41 2.909 41 40 0 40 0 2.909 10.982 2.909"/>
    <path d="M10.9821429 2.90909091C10.9821429 1.30254545 12.2934107 0 13.9107143 0 15.5280179 0 16.8392857 1.30254545 16.8392857 2.90909091 16.8392857 4.51563636 15.5280179 5.81818182 13.9107143 5.81818182M18.3035714 5.81818182C19.920875 5.81818182 21.2321429 4.51563636 21.2321429 2.90909091 21.2321429 1.30254545 19.920875 0 18.3035714 0M22.6964286 5.81818182C24.3137321 5.81818182 25.625 4.51563636 25.625 2.90909091 25.625 1.30254545 24.3137321 0 22.6964286 0M27.0892857 5.81818182C28.7065893 5.81818182 30.0178571 4.51563636 30.0178571 2.90909091 30.0178571 1.30254545 28.7065893 0 27.0892857 0"/>
    <polygon points="0 19.636 10.25 19.636 10.25 9.455 0 9.455"/>
    <polygon points="0 29.818 10.25 29.818 10.25 19.636 0 19.636"/>
    <polygon points="0 40 10.25 40 10.25 29.818 0 29.818"/>
    <polygon points="10.25 19.636 20.5 19.636 20.5 9.455 10.25 9.455"/>
    <polygon points="10.25 29.818 20.5 29.818 20.5 19.636 10.25 19.636"/>
    <polygon points="10.25 40 20.5 40 20.5 29.818 10.25 29.818"/>
    <polygon points="20.5 19.636 30.75 19.636 30.75 9.455 20.5 9.455"/>
    <polygon points="20.5 29.818 30.75 29.818 30.75 19.636 20.5 19.636"/>
    <polygon points="20.5 40 30.75 40 30.75 29.818 20.5 29.818"/>
    <polygon points="30.75 19.636 41 19.636 41 9.455 30.75 9.455"/>
    <polygon points="30.75 29.818 41 29.818 41 19.636 30.75 19.636"/>
    <path d="M22.6964286 27.6363636L28.5535714 21.8181818 22.6964286 27.6363636zM22.6964286 21.8181818L28.5535714 27.6363636 22.6964286 21.8181818z"/>
    <polygon points="30.75 40 41 40 41 29.818 30.75 29.818"/>
  </g>
</svg>
