<svg xmlns="http://www.w3.org/2000/svg" width="50" height="50" viewBox="0 0 50 50">
  <g fill="none" fill-rule="evenodd" stroke="#8757FB" stroke-linecap="round" stroke-linejoin="round" stroke-width="1.455" transform="translate(5 5)">
    <polygon points=".366 20 20.5 0 40.634 20 20.5 40"/>
    <polygon points="36.706 20 20.5 36.099 4.294 20 20.5 3.901"/>
    <path d="M15.6402554 20.6896L15.6402554 13.7928727C15.6402554 13.0314182 16.2618446 12.4139636 17.0283982 12.4139636 17.7956839 12.4139636 18.4172732 13.0314182 18.4172732 13.7928727L18.4172732 18.6205091M18.4172732 17.9311273L18.4172732 10.3449455C18.4172732 9.58276364 19.0388625 8.96530909 19.8054161 8.96530909 20.5727018 8.96530909 21.1942911 9.58276364 21.1942911 10.3449455L21.1942911 17.9311273"/>
    <path d="M21.1942179 19.3104L21.1942179 11.7242182C21.1942179 10.9620364 21.8158071 10.3445818 22.5823607 10.3445818 23.3496464 10.3445818 23.9712357 10.9620364 23.9712357 11.7242182L23.9712357 19.3104M23.9712357 20.6896L23.9712357 15.1725091C23.9712357 14.4103273 24.592825 13.7928727 25.3593786 13.7928727 26.1266643 13.7928727 26.7482536 14.4103273 26.7482536 15.1725091L26.7482536 22.7586909M26.7486196 22.7585455C26.7486196 22.7585455 26.7486196 27.5861818 24.6656732 27.5861818M15.6402554 20.6896C15.1438625 19.7230545 14.5317911 18.8205091 13.8172196 18.0001455 13.5953804 17.7703273 13.2886125 17.6386909 12.9679339 17.6357818 12.6465232 17.6336 12.3382911 17.7601455 12.1120589 17.9870545L12.1113268 17.9877818C11.7364696 18.3608727 11.6537375 18.9339636 11.9085232 19.3965091 12.8090589 21.1536 13.5917196 22.9681455 14.2513804 24.8270545 14.7419161 26.2641455 16.3343268 27.5863273 17.7232018 27.5863273"/>
  </g>
</svg>
