<svg xmlns="http://www.w3.org/2000/svg" xmlns:xlink="http://www.w3.org/1999/xlink" width="385" height="300" viewBox="0 0 385 300">
  <defs>
    <polygon id="hdr_img-a" points="0 .316 384.944 .316 384.944 13.295 0 13.295"/>
    <path id="hdr_img-c" d="M14.3963448,0.57079646 L14.6662874,7.69911504 L7.04505747,25.6699115 L9.17008046,28.8920354 L8.4222069,29.7477876 C6.79547126,30.2761062 5.08377011,29.9309735 5.08377011,29.9309735 L0.872666667,25 L14.3963448,0.57079646 Z"/>
    <linearGradient id="hdr_img-d" x1="-.001%" x2="99.998%" y1="50%" y2="50%">
      <stop offset="0%" stop-color="#E9D18C"/>
      <stop offset="100%" stop-color="#524F62"/>
    </linearGradient>
    <polygon id="hdr_img-f" points=".311 44.046 20.437 48.869 18.905 .148"/>
    <linearGradient id="hdr_img-g" x1="-103.16%" x2="273.044%" y1="82.569%" y2="21.107%">
      <stop offset="0%" stop-color="#E9D18C"/>
      <stop offset="100%" stop-color="#524F62"/>
    </linearGradient>
    <linearGradient id="hdr_img-i" x1="99.802%" x2="-110.729%" y1="50.851%" y2="45.982%">
      <stop offset="0%" stop-color="#484DC1"/>
      <stop offset="100%" stop-color="#444BCC"/>
    </linearGradient>
    <polygon id="hdr_img-j" points=".044 .326 6.151 .326 6.151 27.434 .044 27.434"/>
    <path id="hdr_img-l" d="M0.925770115,0.57079646 L14.4485632,25 L10.2374598,29.9309735 C10.2374598,29.9309735 8.52575862,30.2761062 6.89902299,29.7477876 L6.15114943,28.8920354 L8.27617241,25.6699115 L0.654942529,7.69911504 L0.925770115,0.57079646 Z"/>
    <polygon id="hdr_img-n" points=".195 48.869 20.321 44.046 1.726 .148"/>
    <path id="hdr_img-p" d="M0.174356322,0.826548673 L23.8018506,33.3982301 C24.4098851,32.9061947 24.8701149,32.2300885 25.0825287,31.4318584 L31.9408391,5.58938053 C32.5798506,3.1840708 30.7672529,0.826548673 28.2775862,0.826548673 L0.174356322,0.826548673 Z"/>
    <linearGradient id="hdr_img-q" x1=".201%" x2="210.731%" y1="50.851%" y2="45.982%">
      <stop offset="0%" stop-color="#484DC1"/>
      <stop offset="100%" stop-color="#444BCC"/>
    </linearGradient>
    <path id="hdr_img-s" d="M4.97225287,0.962831858 C2.2453908,0.984070796 0.207103448,3.47964602 0.732827586,6.15486726 L5.63516092,19.9424779 C6.07857471,21.1902655 7.25835632,22.0221239 8.58151724,22.0221239 L15.4584138,22.0221239 L32.0249195,0.757522124 L4.97225287,0.962831858 Z"/>
    <linearGradient id="hdr_img-t" x1="64.052%" x2="-62.443%" y1="49.314%" y2="53.722%">
      <stop offset="0%" stop-color="#484DC1"/>
      <stop offset="100%" stop-color="#444BCC"/>
    </linearGradient>
  </defs>
  <g fill="none" fill-rule="evenodd">
    <g transform="translate(0 .405)">
      <path fill="#FFF" d="M347.609774,0.479734513 L37.3342908,0.479734513 C31.114992,0.479734513 26.0737046,5.52044248 26.0737046,11.7390265 L26.0737046,225.391239 L358.871245,225.391239 L358.871245,11.7390265 C358.871245,5.52044248 353.829072,0.479734513 347.609774,0.479734513"/>
      <g transform="translate(0 221.239)">
        <mask id="hdr_img-b" fill="#fff">
          <use xlink:href="#hdr_img-a"/>
        </mask>
        <path fill="#FFF" d="M381.006001,0.316017699 L3.93877126,0.316017699 C1.7633,0.316017699 0.000265517241,2.07884956 0.000265517241,4.25318584 L0.000265517241,9.35761062 C0.000265517241,11.5319469 1.7633,13.2947788 3.93788621,13.2947788 L381.006001,13.2947788 C383.181472,13.2947788 384.944507,11.5319469 384.944507,9.35761062 L384.944507,4.25318584 C384.944507,2.07884956 383.181472,0.316017699 381.006001,0.316017699" mask="url(#hdr_img-b)"/>
      </g>
      <path fill="#8757FB" d="M347.208754,5.22 L37.7360184,5.22 C33.8975241,5.22 30.784777,8.33150442 30.784777,12.1704425 L30.784777,222.191681 L354.159995,222.191681 L354.159995,12.1704425 C354.159995,8.33150442 351.048133,5.22 347.208754,5.22"/>
      <polygon fill="#2D2C56" points="42.407 214.782 342.538 214.782 342.538 20.758 42.407 20.758"/>
      <path fill="#F7F7F7" d="M194.158598,13.9373451 C194.158598,14.8683186 193.402759,15.6231858 192.472563,15.6231858 C191.541483,15.6231858 190.786529,14.8683186 190.786529,13.9373451 C190.786529,13.0063717 191.541483,12.2515044 192.472563,12.2515044 C193.402759,12.2515044 194.158598,13.0063717 194.158598,13.9373451"/>
      <path fill="#737AFB" d="M224.826193,227.244071 L160.118756,227.244071 C159.267331,227.244071 158.577871,227.933451 158.577871,228.783894 C158.577871,229.634336 159.267331,230.324602 160.118756,230.324602 L224.826193,230.324602 C225.677618,230.324602 226.367078,229.634336 226.367078,228.783894 C226.367078,227.933451 225.677618,227.244071 224.826193,227.244071"/>
      <g transform="translate(52.218 30.973)">
        <polygon fill="#D98E9D" points="27.853 5.788 57.945 5.788 57.945 .479 27.853 .479"/>
        <polygon fill="#FFF" points=".677 5.788 13.067 5.788 13.067 .479 .677 .479"/>
        <polygon fill="#FFF" points=".677 15.524 13.067 15.524 13.067 10.214 .677 10.214"/>
        <polygon fill="#FFF" points=".677 27.028 13.067 27.028 13.067 21.719 .677 21.719"/>
        <polygon fill="#FFF" points=".677 38.533 13.067 38.533 13.067 33.223 .677 33.223"/>
        <polygon fill="#FFF" points=".677 50.037 13.067 50.037 13.067 44.727 .677 44.727"/>
        <polygon fill="#FFF" points=".677 61.542 13.067 61.542 13.067 56.232 .677 56.232"/>
        <polygon fill="#E0E4ED" points="64.141 5.788 165.041 5.788 165.041 .479 64.141 .479"/>
        <polygon fill="#D98E9D" points="38.474 15.524 68.566 15.524 68.566 10.214 38.474 10.214"/>
        <polygon fill="#E0E4ED" points="74.762 15.524 175.663 15.524 175.663 10.214 74.762 10.214"/>
        <polygon fill="#D98E9D" points="56.176 27.028 86.268 27.028 86.268 21.719 56.176 21.719"/>
        <polygon fill="#E0E4ED" points="92.465 27.028 193.365 27.028 193.365 21.719 92.465 21.719"/>
        <polygon fill="#D98E9D" points="73.878 38.533 103.97 38.533 103.97 33.223 73.878 33.223"/>
        <polygon fill="#E0E4ED" points="110.166 38.533 211.067 38.533 211.067 33.223 110.166 33.223"/>
        <polygon fill="#D98E9D" points="56.176 50.037 86.268 50.037 86.268 44.727 56.176 44.727"/>
        <polygon fill="#E0E4ED" points="92.464 50.037 246.471 50.037 246.471 44.727 92.464 44.727"/>
        <polygon fill="#D98E9D" points="38.474 61.542 68.566 61.542 68.566 56.232 38.474 56.232"/>
        <polygon fill="#E0E4ED" points="74.762 61.542 140.258 61.542 140.258 56.232 74.762 56.232"/>
      </g>
      <g transform="translate(52.218 101.77)">
        <polygon fill="#D98E9D" points="27.853 5.809 57.945 5.809 57.945 .499 27.853 .499"/>
        <polygon fill="#FFF" points=".677 5.809 13.067 5.809 13.067 .499 .677 .499"/>
        <polygon fill="#FFF" points=".677 15.544 13.067 15.544 13.067 10.235 .677 10.235"/>
        <polygon fill="#FFF" points=".677 27.049 13.067 27.049 13.067 21.739 .677 21.739"/>
        <polygon fill="#FFF" points=".677 38.553 13.067 38.553 13.067 33.243 .677 33.243"/>
        <polygon fill="#FFF" points=".677 50.057 13.067 50.057 13.067 44.747 .677 44.747"/>
        <polygon fill="#FFF" points=".677 61.561 13.067 61.561 13.067 56.251 .677 56.251"/>
        <polygon fill="#E0E4ED" points="64.141 5.809 165.041 5.809 165.041 .499 64.141 .499"/>
        <polygon fill="#D98E9D" points="38.474 15.544 68.566 15.544 68.566 10.235 38.474 10.235"/>
        <polygon fill="#E0E4ED" points="74.762 15.544 175.663 15.544 175.663 10.235 74.762 10.235"/>
        <polygon fill="#D98E9D" points="56.176 27.049 86.268 27.049 86.268 21.739 56.176 21.739"/>
        <polygon fill="#E0E4ED" points="92.465 27.049 193.365 27.049 193.365 21.739 92.465 21.739"/>
        <polygon fill="#D98E9D" points="27.853 76.605 57.945 76.605 57.945 71.296 27.853 71.296"/>
        <polygon fill="#FFF" points=".677 76.605 13.067 76.605 13.067 71.296 .677 71.296"/>
        <polygon fill="#FFF" points=".677 86.34 13.067 86.34 13.067 81.03 .677 81.03"/>
        <polygon fill="#FFF" points=".677 97.844 13.067 97.844 13.067 92.535 .677 92.535"/>
        <polygon fill="#E0E4ED" points="64.141 76.605 165.041 76.605 165.041 71.296 64.141 71.296"/>
        <polygon fill="#D98E9D" points="38.474 86.34 68.566 86.34 68.566 81.03 38.474 81.03"/>
        <polygon fill="#E0E4ED" points="74.762 86.34 175.663 86.34 175.663 81.03 74.762 81.03"/>
        <polygon fill="#D98E9D" points="56.176 97.844 86.268 97.844 86.268 92.535 56.176 92.535"/>
        <polygon fill="#E0E4ED" points="92.465 97.844 193.365 97.844 193.365 92.535 92.465 92.535"/>
        <polygon fill="#D98E9D" points="73.878 38.553 103.97 38.553 103.97 33.243 73.878 33.243"/>
        <polygon fill="#E0E4ED" points="110.166 38.553 264.174 38.553 264.174 33.243 110.166 33.243"/>
        <polygon fill="#D98E9D" points="56.176 50.057 86.268 50.057 86.268 44.747 56.176 44.747"/>
        <polygon fill="#E0E4ED" points="92.465 50.057 193.365 50.057 193.365 44.747 92.465 44.747"/>
        <polygon fill="#D98E9D" points="38.474 61.561 68.566 61.561 68.566 56.251 38.474 56.251"/>
        <polygon fill="#E0E4ED" points="74.762 61.561 175.663 61.561 175.663 56.251 74.762 56.251"/>
      </g>
      <polygon fill="#737AFB" points="83.183 234.534 94.962 234.534 94.962 221.555 83.183 221.555"/>
      <polygon fill="#737AFB" points="106.09 234.534 117.869 234.534 117.869 221.555 106.09 221.555"/>
      <polygon fill="#737AFB" points="281.512 234.534 293.292 234.534 293.292 221.555 281.512 221.555"/>
      <polygon fill="#737AFB" points="301.839 234.534 313.619 234.534 313.619 221.555 301.839 221.555"/>
      <path fill="#2D2C56" d="M100.752641 273.367257L100.798664 279.743363C100.798664 279.743363 99.9932621 283.826549 99.3480552 288.177876 98.7037333 292.530088 98.2196069 297.150442 98.8648138 298.224779 100.154343 300.374336 102.7334 298.224779 103.163538 296.076106 103.592791 293.926549 104.237998 280.60354 104.237998 280.60354L104.667251 272.00708 100.752641 273.367257zM94.2265816 272.515929L95.2107655 278.239823C95.2107655 278.239823 97.1455011 293.926549 96.0701563 296.290265 94.9956966 298.654867 91.5572483 297.579646 91.7723172 294.356637 91.9873862 291.132743 91.1271103 279.743363 91.1271103 279.743363L89.1932598 272.866372 94.2265816 272.515929z"/>
      <path fill="#37354C" d="M96.8869759,202.637257 L97.3578264,209.700088 L79.1601598,218.480619 C75.8739414,220.252301 74.2923437,224.093894 75.3765391,227.665575 L87.9832977,274.501858 L94.2264931,272.516018 L88.6860333,229.432832 C88.296608,226.782389 90.1162862,224.313363 92.762608,223.898319 L99.2412287,222.884159 L106.143792,215.852301 L98.1658839,223.010708 C96.2338034,224.744336 95.2841368,227.322212 95.6301943,229.894779 L100.752907,273.367345 L106.427895,274.785044 L108.961815,231.983274 C109.145022,229.27 110.970895,226.944336 113.564114,226.121327 L124.779562,222.56469 C126.564723,221.47708 127.67547,219.558496 127.731229,217.469115 L127.259493,202.401858 L96.8869759,202.637257 Z"/>
      <path fill="#EAD18C" d="M128.413697,218.448142 L125.409811,159.964956 C125.409811,159.964956 112.969444,159.218938 109.268133,159.218938 C107.251972,159.218938 103.806444,160.175575 101.087547,161.048142 C98.5315011,161.865841 96.4091333,161.793274 95.1682828,164.17292 L74.766823,203.270265 L87.301892,204.464071 L91.4811333,199.68885 L89.3552253,196.466726 L96.9764552,178.495929 L95.480708,211.130442 L128.413697,218.448142 Z"/>
      <g transform="translate(82.31 170.796)">
        <mask id="hdr_img-e" fill="#fff">
          <use xlink:href="#hdr_img-c"/>
        </mask>
        <path fill="url(#hdr_img-d)" d="M14.3963448,0.57079646 L0.872666667,25 L5.08377011,29.9309735 C5.08377011,29.9309735 6.79547126,30.2761062 8.4222069,29.7477876 L9.17008046,28.8920354 L7.04505747,25.6699115 L14.6662874,7.69911504 L14.3963448,0.57079646 Z" mask="url(#hdr_img-e)"/>
      </g>
      <path fill="#FFF" d="M112.929882,169.481681 C117.040974,169.481681 120.3741,166.148938 120.3741,162.039204 C120.3741,161.20469 120.230721,160.40646 119.977594,159.657788 C116.145295,159.452478 111.339433,159.21885 109.268399,159.21885 C108.359445,159.21885 107.154882,159.41885 105.862698,159.712655 C105.621962,160.444513 105.486548,161.225929 105.486548,162.039204 C105.486548,166.148938 108.81879,169.481681 112.929882,169.481681"/>
    </g>
    <g transform="translate(107.977 170.317)">
      <mask id="hdr_img-h" fill="#fff">
        <use xlink:href="#hdr_img-f"/>
      </mask>
      <polygon fill="url(#hdr_img-g)" points=".311 44.046 20.437 48.869 18.905 .148" mask="url(#hdr_img-h)"/>
    </g>
    <g transform="translate(52.218 134.919)">
      <path fill="#EEBCC5" d="M55.794023,18.6900885 C56.1436207,19.3883186 58.5854943,28.9830088 58.5854943,28.9830088 C58.5854943,28.9830088 59.4581609,30.5529204 61.5513218,30.3785841 C63.6453678,30.2042478 64.5180345,27.2378761 64.5180345,27.2378761 L60.8538966,15.2015929 L55.794023,18.6900885 Z"/>
      <path fill="#EEBCC5" d="M68.707277,12.7814159 C68.707277,19.3911504 61.6887713,26.7044248 55.0791621,26.7044248 C48.4686678,26.7044248 44.7700126,19.3911504 44.7700126,12.7814159 C44.7700126,6.17168142 50.1281506,0.814159292 56.7386448,0.814159292 C63.348254,0.814159292 68.707277,6.17168142 68.707277,12.7814159"/>
      <path fill="#EEBCC5" d="M69.9678644,13.739823 C69.9678644,21.1814159 63.9353126,27.2141593 56.4928644,27.2141593 C49.0504161,27.2141593 43.0169793,21.1814159 43.0169793,13.739823 C43.0169793,6.29911504 49.0504161,0.266371681 56.4928644,0.266371681 C63.9353126,0.266371681 69.9678644,6.29911504 69.9678644,13.739823"/>
      <path fill="#EFF2F7" d="M44.9356069 18.0548673C44.3461586 18.0548673 43.8655724 18.2769912 43.5805839 18.680531 43.2442621 19.1557522 43.2017793 19.8504425 43.4619862 20.5840708 43.9903655 22.0654867 45.5569172 23.2716814 46.9570782 23.2716814 47.5465264 23.2716814 48.0271126 23.0495575 48.3121011 22.6451327 48.6475379 22.1699115 48.6909057 21.4752212 48.4298138 20.7415929 47.9023195 19.260177 46.3357678 18.0548673 44.9356069 18.0548673M46.9570782 23.740708C45.3745954 23.740708 43.6089057 22.3955752 43.0212276 20.7415929 42.7079172 19.8619469 42.7725264 19.0115044 43.197354 18.4097345 43.5726184 17.8787611 44.1895034 17.5858407 44.9356069 17.5858407 46.5180897 17.5858407 48.2837793 18.9309735 48.8714575 20.5840708 49.1838828 21.4646018 49.1201586 22.3132743 48.695331 22.9159292 48.3200667 23.4477876 47.7022966 23.740708 46.9570782 23.740708M52.8730678 18.0548673C52.2845046 18.0548673 51.8030333 18.2769912 51.5180448 18.680531 51.181723 19.1557522 51.1392402 19.8504425 51.4003322 20.5840708 51.9278264 22.0654867 53.4943782 23.2716814 54.8945391 23.2716814 55.4839874 23.2716814 55.9645736 23.0495575 56.2495621 22.6451327 56.5858839 22.1699115 56.6283667 21.4752212 56.3672747 20.7415929 55.8406655 19.260177 54.2732287 18.0548673 52.8730678 18.0548673M54.8945391 23.740708C53.3120563 23.740708 51.5463667 22.3955752 50.9586885 20.7415929 50.6453782 19.8619469 50.7099874 19.0115044 51.1348149 18.4097345 51.5100793 17.8787611 52.1269644 17.5858407 52.8730678 17.5858407 54.4555506 17.5858407 56.2212402 18.9309735 56.8089184 20.5840708 57.1222287 21.4646018 57.0576195 22.3132743 56.633677 22.9159292 56.2584126 23.4477876 55.6406425 23.740708 54.8945391 23.740708"/>
      <path fill="#2D2B42" d="M48.3738782 21.4771681C48.5889471 21.8497345 48.5562 22.2709735 48.2995333 22.4187611 48.0428667 22.5665487 47.6614069 22.3851327 47.4463379 22.0125664 47.231269 21.640885 47.2649011 21.2187611 47.5206828 21.0700885 47.7773494 20.9223009 48.1588092 21.1046018 48.3738782 21.4771681M54.361823 21.7623894C54.576892 22.1349558 54.5441448 22.5561947 54.2874782 22.7039823 54.0308115 22.8517699 53.6493517 22.670354 53.4342828 22.2977876 53.2192138 21.9261062 53.252846 21.5030973 53.5086276 21.3553097 53.7644092 21.2075221 54.146754 21.389823 54.361823 21.7623894"/>
      <path fill="#EEBCC5" d="M59.0209425,78.3130973 C58.4978736,78.1387611 54.0761264,75.9962832 50.9359425,75.9962832 C47.7948736,75.9962832 43.9563793,79.3104425 43.9563793,79.3104425 C43.9563793,79.3104425 43.4333103,81.0555752 45.5264713,80.7060177 C47.6205172,80.3573451 45.2388276,82.0228319 45.2388276,82.0228319 C45.2388276,82.0228319 45.353,82.1015929 47.7948736,82.4511504 C50.2376322,82.7989381 59.7608506,82.2874336 59.7608506,82.2874336 L59.0209425,78.3130973 Z"/>
      <path fill="#EAD18C" d="M73.1908897,25.4516814 L74.874269,63.9428319 L59.0520966,78.2569912 L59.8052805,82.2746903 L82.0874874,70.3782301 C84.2426023,69.2269027 85.4524759,66.8552212 85.1188092,64.4357522 L81.0537402,34.980885 C80.7174184,31.3056637 78.4959241,28.0693805 75.1866943,26.4357522 L73.1908897,25.4516814 Z"/>
      <path fill="#FFF" d="M60.6462621,85.5776991 L20.3389747,85.5776991 L20.3389747,82.6228319 L60.6462621,82.6228319 C61.4622851,82.6228319 62.123423,83.2847788 62.123423,84.100708 C62.123423,84.9166372 61.4622851,85.5776991 60.6462621,85.5776991"/>
      <path fill="#FFF" d="M49.587823,85.5776991 L10.718754,85.5776991 C8.99997241,85.5776991 7.49625977,84.4210619 7.05550115,82.759115 L0.19542069,56.9166372 C-0.442705747,54.5122124 1.37077701,52.1538053 3.85955862,52.1538053 L37.7997425,52.1538053 C39.5185241,52.1538053 41.0222368,53.3104425 41.4638805,54.9723894 L49.587823,85.5776991 Z"/>
    </g>
    <path fill="url(#hdr_img-i)" fill-opacity=".05" d="M3.85973563,0.826548673 C1.37006897,0.826548673 -0.443413793,3.1840708 0.195597701,5.58938053 L7.05567816,31.4318584 C7.26632184,32.2300885 7.72743678,32.9061947 8.33458621,33.3982301 L31.9620805,0.826548673 L3.85973563,0.826548673 Z" transform="translate(52.218 186.246)"/>
    <g transform="translate(71.69 134.919)">
      <path fill="#737AFB" d="M7.22649425,71.1539823 C7.6522069,72.839823 6.59102299,74.2061947 4.8571954,74.2061947 C3.12248276,74.2061947 1.37095402,72.839823 0.945241379,71.1539823 C0.519528736,69.4690265 1.58071264,68.1017699 3.31542529,68.1017699 C5.05013793,68.1017699 6.80078161,69.4690265 7.22649425,71.1539823"/>
      <path fill="#8757FB" d="M37.0215115,0.266725664 C30.1065575,0.266725664 24.416523,5.47646018 23.6429828,12.1835398 C25.9857299,13.9145133 29.0382931,14.6844248 31.9129598,14.1826549 C35.3071552,13.5906195 38.3490977,11.2569912 39.800592,8.13221239 C39.6961552,9.62513274 39.5926034,11.1348673 39.8421897,12.6100885 C40.0908908,14.0861947 40.7307874,15.5472566 41.8831322,16.5030088 C41.9689828,15.4561062 42.0689943,14.3676106 42.6150747,13.4702655 C43.1611552,12.5738053 44.3002241,11.9446018 45.2782126,12.3260177 C45.9791782,12.599469 46.4287874,13.3295575 46.5341092,14.0746903 C46.638546,14.8189381 46.4464885,15.5764602 46.1730057,16.2773451 C45.7428678,17.3782301 45.1038563,18.3968142 44.3002241,19.2649558 C45.8933276,19.5162832 47.5696264,19.7038938 49.1645,19.5507965 C50.0097299,17.7897345 50.4965115,15.8242478 50.4965115,13.740177 C50.4965115,6.29858407 44.4639598,0.266725664 37.0215115,0.266725664"/>
      <path fill="#EEBCC5" d="M48.5834598,15.960885 C48.5834598,18.2157522 46.7558161,20.0431858 44.5006897,20.0431858 C42.2455632,20.0431858 40.4170345,18.2157522 40.4170345,15.960885 C40.4170345,13.7060177 42.2455632,11.8785841 44.5006897,11.8785841 C46.7558161,11.8785841 48.5834598,13.7060177 48.5834598,15.960885"/>
      <polygon fill="#EEBCC5" points="22.537 138.003 23.272 142.279 18.988 143.629 17.8 139.409"/>
      <polygon fill="#EEBCC5" points="29.098 143.63 32.637 144.312 32.862 139.804 29.063 138.854"/>
      <g transform="translate(207.989 137.168)">
        <mask id="hdr_img-k" fill="#fff">
          <use xlink:href="#hdr_img-j"/>
        </mask>
        <path fill="#2D2C56" d="M3.9593931,1.68584071 L3.91248506,8.0619469 C3.91248506,8.0619469 4.71877241,12.1451327 5.36397931,16.4964602 C6.00830115,20.8486726 6.49154253,25.4690265 5.84722069,26.5433628 C4.55769195,28.6929204 1.97863448,26.5433628 1.54849655,24.3946903 C1.11924368,22.2451327 0.474036782,8.92212389 0.474036782,8.92212389 L0.0438988506,0.325663717 L3.9593931,1.68584071 Z" mask="url(#hdr_img-k)"/>
      </g>
      <path fill="#2D2C56" d="M218.474313,138.002655 L217.490129,143.726549 C217.490129,143.726549 215.555393,159.413274 216.629853,161.776991 C217.704313,164.141593 221.143646,163.066372 220.927692,159.843363 C220.713508,156.619469 221.572899,145.230088 221.572899,145.230088 L223.507634,138.353097 L218.474313,138.002655 Z"/>
      <path fill="#2D2C56" d="M215.814007,68.1239823 L215.343156,75.1868142 L233.539938,83.9673451 C236.826156,85.7390265 238.408639,89.5806195 237.324444,93.1523009 L224.7168,139.988584 L218.47449,138.002743 L224.014949,94.9195575 C224.40349,92.269115 222.584697,89.8000885 219.93749,89.3850442 L213.459754,88.370885 L206.556306,81.3390265 L214.535099,88.4974336 C216.466294,90.2310619 217.416846,92.8089381 217.070789,95.3815044 L211.948076,138.854071 L206.273087,140.27177 L203.739168,97.47 C203.555076,94.7567257 201.730087,92.4310619 199.135984,91.6080531 L187.920536,88.0514159 C186.13626,86.9638053 185.024628,85.0452212 184.969754,82.9558407 L185.440605,67.8885841 L215.814007,68.1239823 Z"/>
      <path fill="#D98E9D" d="M184.287286,83.9348673 L187.291171,25.4516814 C187.291171,25.4516814 199.730654,24.7056637 203.432849,24.7056637 C205.44901,24.7056637 208.894539,25.6623009 211.613436,26.5348673 C214.169482,27.3525664 216.290964,27.28 217.5327,29.659646 L237.933275,68.7569912 L225.398206,69.9507965 L221.219849,65.1755752 L223.344872,61.9534513 L215.724528,43.9826549 L217.220275,76.6171681 L184.287286,83.9348673 Z"/>
      <g transform="translate(215.069 36.283)">
        <mask id="hdr_img-m" fill="#fff">
          <use xlink:href="#hdr_img-l"/>
        </mask>
        <path d="M0.925770115,0.57079646 L14.4485632,25 L10.2374598,29.9309735 C10.2374598,29.9309735 8.52575862,30.2761062 6.89902299,29.7477876 L6.15114943,28.8920354 L8.27617241,25.6699115 L0.654942529,7.69911504 L0.925770115,0.57079646 Z" mask="url(#hdr_img-m)"/>
      </g>
      <path fill="#FFF" d="M203.978045,42.3686726 C199.866953,42.3686726 192.327148,31.6359292 192.327148,27.5261947 C192.327148,26.6916814 192.469643,25.8934513 192.722769,25.1447788 C196.555068,24.939469 201.36093,24.7058407 203.432849,24.7058407 C204.340918,24.7058407 205.545482,24.9058407 206.837666,25.199646 C207.079286,25.9315044 207.213815,26.7129204 207.213815,27.5261947 C207.213815,31.6359292 208.089137,42.3686726 203.978045,42.3686726"/>
    </g>
    <g transform="translate(255.782 170.317)">
      <mask id="hdr_img-o" fill="#fff">
        <use xlink:href="#hdr_img-n"/>
      </mask>
      <polygon points=".195 48.869 20.321 44.046 1.726 .148" mask="url(#hdr_img-o)"/>
    </g>
    <g transform="translate(246.931 134.919)">
      <path fill="#EEBCC5" d="M29.4463046,18.6900885 C29.097592,19.3883186 26.6557184,28.9830088 26.6557184,28.9830088 C26.6557184,28.9830088 25.7821667,30.5529204 23.6890057,30.3785841 C21.5958448,30.2042478 20.7231782,27.2378761 20.7231782,27.2378761 L24.386431,15.2015929 L29.4463046,18.6900885 Z"/>
      <path fill="#EEBCC5" d="M16.5334046,12.7814159 C16.5334046,19.3911504 23.5519103,26.7044248 30.1615195,26.7044248 C36.7720138,26.7044248 40.470669,19.3911504 40.470669,12.7814159 C40.470669,6.17168142 35.112531,0.814159292 28.5020368,0.814159292 C21.8924276,0.814159292 16.5334046,6.17168142 16.5334046,12.7814159"/>
      <path fill="#EEBCC5" d="M15.2732598,13.739823 C15.2732598,21.1814159 21.3058115,27.2141593 28.7482598,27.2141593 C36.190708,27.2141593 42.2232598,21.1814159 42.2232598,13.739823 C42.2232598,6.29911504 36.190708,0.266371681 28.7482598,0.266371681 C21.3058115,0.266371681 15.2732598,6.29911504 15.2732598,13.739823"/>
      <path fill="#2D2B42" d="M37.622731 21.0631858C37.3536736 21.5277876 37.3952713 22.0552212 37.714777 22.240177 38.0351678 22.4242478 38.5130989 22.1968142 38.7812713 21.7322124 39.0494437 21.2658407 39.007846 20.740177 38.6883402 20.5552212 38.3688345 20.3702655 37.8917885 20.5976991 37.622731 21.0631858M30.8404471 21.7969027C30.545723 22.3075221 30.5908609 22.8862832 30.9422287 23.0889381 31.2935966 23.2915929 31.8175506 23.0420354 32.1122747 22.5314159 32.4078839 22.0199115 32.362746 21.4420354 32.0104931 21.2384956 31.6600103 21.0358407 31.1351713 21.2853982 30.8404471 21.7969027"/>
      <path fill="#EEBCC5" d="M26.2198276,78.3130973 C26.7437816,78.1387611 31.1646437,75.9962832 34.3057126,75.9962832 C37.4458966,75.9962832 41.2843908,79.3104425 41.2843908,79.3104425 C41.2843908,79.3104425 41.8074598,81.0555752 39.7134138,80.7060177 C37.6202529,80.3573451 40.0019425,82.0228319 40.0019425,82.0228319 C40.0019425,82.0228319 39.8877701,82.1015929 37.4458966,82.4511504 C35.0031379,82.7989381 25.4799195,82.2874336 25.4799195,82.2874336 L26.2198276,78.3130973 Z"/>
      <path fill="#D98E9D" d="M12.0493494,25.4516814 L10.3659701,63.9428319 L26.1890276,78.2569912 L25.4349586,82.2746903 L3.15275172,70.3782301 C0.997636782,69.2269027 -0.212236782,66.8552212 0.121429885,64.4357522 L4.18738391,34.980885 C4.52282069,31.3056637 6.7452,28.0693805 10.0535448,26.4357522 L12.0493494,25.4516814 Z"/>
      <path fill="#FFF" d="M24.5940655,85.5776991 L64.9013529,85.5776991 L64.9013529,82.6228319 L24.5940655,82.6228319 C23.7780425,82.6228319 23.1169046,83.2847788 23.1169046,84.100708 C23.1169046,84.9166372 23.7780425,85.5776991 24.5940655,85.5776991"/>
      <path fill="#FFF" d="M35.6529471,85.5776991 L74.521131,85.5776991 C76.2399126,85.5776991 77.7445103,84.4210619 78.186154,82.759115 L85.0453494,56.9166372 C85.6834759,54.5122124 83.8699931,52.1538053 81.3812115,52.1538053 L47.4410276,52.1538053 C45.722246,52.1538053 44.2185333,53.3104425 43.7777747,54.9723894 L35.6529471,85.5776991 Z"/>
    </g>
    <g transform="translate(300.034 186.246)">
      <mask id="hdr_img-r" fill="#fff">
        <use xlink:href="#hdr_img-p"/>
      </mask>
      <path fill="url(#hdr_img-q)" fill-opacity=".05" d="M0.174356322,0.826548673 L23.8018506,33.3982301 C24.4098851,32.9061947 24.8701149,32.2300885 25.0825287,31.4318584 L31.9408391,5.58938053 C32.5798506,3.1840708 30.7672529,0.826548673 28.2775862,0.826548673 L0.174356322,0.826548673 Z" mask="url(#hdr_img-r)"/>
    </g>
    <g transform="translate(155 124.405)">
      <path fill="#737AFB" d="M150.473603,81.6672566 C150.048776,83.3530973 151.109075,84.719469 152.843787,84.719469 C154.5785,84.719469 156.329144,83.3530973 156.754856,81.6672566 C157.180569,79.9823009 156.119385,78.6150442 154.385557,78.6150442 C152.650845,78.6150442 150.899316,79.9823009 150.473603,81.6672566"/>
      <path fill="#8757FB" d="M120.67894,10.78 C127.593009,10.78 133.283929,15.9897345 134.057469,22.6968142 C131.715607,24.4277876 128.663044,25.1976991 125.786607,24.6959292 C122.393297,24.1038938 119.351354,21.7702655 117.89986,18.6454867 C118.005182,20.1384071 118.107848,21.6481416 117.858262,23.1233628 C117.609561,24.599469 116.969664,26.060531 115.818205,27.0162832 C115.731469,25.9693805 115.632343,24.880885 115.085377,23.9835398 C114.539297,23.0870796 113.400228,22.4578761 112.422239,22.839292 C111.721274,23.1127434 111.271664,23.8428319 111.167228,24.5879646 C111.062791,25.3322124 111.253963,26.0897345 111.527446,26.7906195 C111.957584,27.8915044 112.596595,28.9100885 113.399343,29.7782301 C111.807124,30.0295575 110.130825,30.2171681 108.535067,30.0640708 C107.690722,28.3030088 107.20394,26.3375221 107.20394,24.2534513 C107.20394,16.8118584 113.237377,10.78 120.67894,10.78"/>
      <path fill="#EEBCC5" d="M109.116992,26.4741593 C109.116992,28.7290265 110.944636,30.5564602 113.199762,30.5564602 C115.454889,30.5564602 117.283417,28.7290265 117.283417,26.4741593 C117.283417,24.219292 115.454889,22.3918584 113.199762,22.3918584 C110.944636,22.3918584 109.116992,24.219292 109.116992,26.4741593"/>
      <polygon fill="#EEBCC5" points="135.164 148.516 134.428 152.792 138.713 154.142 139.901 149.922"/>
      <polygon fill="#EEBCC5" points="128.603 154.143 125.064 154.825 124.838 150.317 128.637 149.368"/>
      <path fill="#8757FB" d="M104.527526,9.61725664 C104.527526,14.4163717 108.418239,18.3075221 113.218791,18.3075221 C118.018457,18.3075221 121.910055,14.4163717 121.910055,9.61725664 C121.910055,4.81814159 118.018457,0.92699115 113.218791,0.92699115 C108.418239,0.92699115 104.527526,4.81814159 104.527526,9.61725664"/>
      <polygon fill="#737AFB" points="15.025 110.534 26.804 110.534 26.804 97.555 15.025 97.555"/>
      <polygon fill="#737AFB" points="56.101 110.534 67.88 110.534 67.88 98.212 56.101 98.212"/>
      <path fill="#37354C" d="M31.9540529,12.7357522 L27.1720874,18.6030088 L24.7815471,23.6012389 L22.5883747,29.88 C22.5883747,29.88 18.712708,33.4950442 18.9215816,33.5472566 C19.1304552,33.5976991 18.695892,37.9437168 19.1304552,38.5968142 C19.5650184,39.2481416 23.9283517,44.4640708 23.9283517,44.4640708 C23.9283517,44.4640708 28.1491908,47.2189381 29.8343402,47.58 C31.5194897,47.9410619 39.9948,51.6357522 39.9948,51.6357522 L45.2113287,46.6375221 L43.2553517,44.0286726 C43.2553517,44.0286726 48.6896046,40.7702655 49.3410069,40.3348673 C49.9932943,39.900354 52.6015586,37.2923894 52.6015586,37.2923894 C52.6015586,37.2923894 52.4944667,35.0171681 52.113892,33.5472566 C51.7315471,32.0764602 49.1241678,24.9056637 49.1241678,24.9056637 C49.1241678,24.9056637 45.645892,19.9074336 45.2113287,19.0384071 C44.7776506,18.1684956 42.8207885,15.3437168 42.8207885,15.3437168 L31.9540529,12.7357522 Z"/>
      <path fill="#8757FB" d="M53.0204563,81.7510619 L19.706008,82.0041593 L19.4484563,48.130708 C19.4334103,46.130708 21.0424448,44.4961947 23.0426747,44.4820354 L49.1138126,44.2838053 C51.1140425,44.2687611 52.7478586,45.8776106 52.7629046,47.8784956 L53.0204563,81.7510619 Z"/>
      <path fill="#37354C" d="M29.7963713,44.4636283 C29.7963713,44.4636283 32.3125897,47.3645133 32.3125897,53.449469 C32.3125897,59.5344248 32.5205782,70.7273451 32.5205782,70.7273451 L39.9948885,70.7592035 L39.9948885,53.1565487 C39.9948885,53.1565487 39.3629575,47.1176106 44.1440379,42.5547788 L35.9970839,42.7618584 L29.7963713,44.4636283 Z"/>
      <path fill="#EEBCC5" d="M35.8573333,51.5329204 C33.6181379,51.5506195 31.7887241,49.7488496 31.771023,47.5090265 L31.678092,35.1851327 C31.6754368,34.8851327 31.9170575,34.639115 32.217977,34.6364602 L39.2391379,34.5833628 C39.5400575,34.5815929 39.7852184,34.8231858 39.7878736,35.1240708 L39.8808046,47.4479646 C39.8985057,49.6869027 38.0965287,51.5161062 35.8573333,51.5329204"/>
      <path fill="#9B5342" d="M49.9564759,32.3456637 C49.9609011,32.2084956 49.9670966,32.0713274 49.9670966,31.9332743 C49.9670966,30.7093805 49.8122115,29.5226549 49.5227977,28.3890265 L49.5227977,26.8173451 C49.5227977,19.0872566 43.197292,12.7624779 35.4663149,12.7624779 C27.7353379,12.7624779 21.4098322,19.0872566 21.4098322,26.8173451 L21.4098322,32.3456637 L49.9564759,32.3456637 Z"/>
      <path fill="#EEBCC5" d="M48.4464793,28.4272566 L48.4464793,27.0723894 C48.4464793,19.9431858 42.6130655,14.1104425 35.4839276,14.1104425 C28.3539046,14.1104425 22.5204908,19.9431858 22.5204908,27.0723894 L22.5204908,32.3847788 C22.5204908,32.740531 22.5620885,33.0883186 22.6364333,33.4237168 C23.4825483,39.8776991 29.0017667,44.8626549 35.6883759,44.8626549 C42.9608931,44.8626549 48.8562609,38.9679646 48.8562609,31.6962832 C48.8562609,30.5679646 48.7146517,29.4732743 48.4464793,28.4272566"/>
      <path fill="#37354C" d="M31.501169 34.0169912C31.501169 34.5674336 31.0551 35.0134513 30.5045943 35.0134513 29.9540885 35.0134513 29.5080195 34.5674336 29.5080195 34.0169912 29.5080195 33.4665487 29.9540885 33.020531 30.5045943 33.020531 31.0551 33.020531 31.501169 33.4665487 31.501169 34.0169912M40.9693368 34.0169912C40.9693368 34.5674336 40.5232678 35.0134513 39.9727621 35.0134513 39.4222563 35.0134513 38.9761874 34.5674336 38.9761874 34.0169912 38.9761874 33.4665487 39.4222563 33.020531 39.9727621 33.020531 40.5232678 33.020531 40.9693368 33.4665487 40.9693368 34.0169912"/>
      <path fill="#EEBCC5" d="M26.2548138 33.5469027C26.2548138 35.5716814 24.6139172 37.2132743 22.5880207 37.2132743 20.5630092 37.2132743 18.9212276 35.5716814 18.9212276 33.5469027 18.9212276 31.5221239 20.5630092 29.879646 22.5880207 29.879646 24.6139172 29.879646 26.2548138 31.5221239 26.2548138 33.5469027M52.1138034 33.5469027C52.1138034 35.5716814 50.4729069 37.2132743 48.4461253 37.2132743 46.4219989 37.2132743 44.7802172 35.5716814 44.7802172 33.5469027 44.7802172 31.5221239 46.4219989 29.879646 48.4461253 29.879646 50.4729069 29.879646 52.1138034 31.5221239 52.1138034 33.5469027"/>
      <path fill="#BCBACE" d="M36.476608,96.7823894 L20.1437575,104.444336 L23.1679989,154.245221 L17.3204241,154.245221 L5.49163103,103.17885 C4.96856207,100.923982 5.94743563,98.5876991 7.92111379,97.3788496 L23.369792,87.9115929 L36.476608,96.7823894 Z"/>
      <path fill="#D98E9D" d="M22.5023471 31.1383186C21.2659218 31.2462832 20.2950138 32.2825664 20.2950138 33.5471681 20.2950138 34.810885 21.2659218 35.8471681 22.5023471 35.9542478L22.5023471 31.1383186zM48.1983977 31.1383186C49.4339379 31.2462832 50.404846 32.2825664 50.404846 33.5471681 50.404846 34.810885 49.4339379 35.8471681 48.1983977 35.9542478L48.1983977 31.1383186z"/>
      <polygon fill="#37354C" points="32.444 94.781 39.973 94.781 39.973 54.643 32.444 54.643"/>
      <path fill="#37354C" d="M44.5899299,28.4315929 C44.9386425,29.5466372 45.4457805,30.8218584 46.5706885,31.1342478 C47.4592862,31.3811504 48.3788609,30.9076991 49.1373552,30.3829204 C49.5515621,30.0953097 49.9852402,29.7360177 50.0604701,29.2360177 C50.1233092,28.8174336 49.9170908,28.410354 49.7152977,28.0377876 C48.9373322,26.5970796 48.1407805,25.1475221 47.0503897,23.9253982 C46.0830218,22.8404425 44.3429989,21.0758407 43.3154471,22.9377876 C42.6135966,24.210354 44.1943092,27.1661062 44.5899299,28.4315929"/>
      <path fill="#37354C" d="M45.9512368,20.1234513 C43.0871908,17.990708 39.5443057,16.7252212 35.7190874,16.7252212 L35.8704322,14.4022124 C32.0629149,14.4022124 28.382846,17.9809735 25.5249954,20.0960177 C28.0208575,22.9323009 31.6752598,25.610177 35.7500644,25.610177 C39.8124782,25.610177 43.4571448,22.9438053 45.9512368,20.1234513"/>
      <path fill="#8757FB" d="M1.26061379,75.079292 C0.772947126,74.3509735 0.620717241,73.4527434 0.834016092,72.6023009 C2.7129931,65.1049558 16.1127632,47.4660177 16.7022115,46.7297345 C17.5908092,45.6182301 22.1727517,44.6182301 22.1727517,44.6182301 L22.701131,56.7261947 L10.5962,70.9624779 C9.80053333,71.8969912 9.6367977,73.2155752 10.1793379,74.3173451 L19.7406138,93.7580531 L14.6993264,95.1695575 L1.26061379,75.079292 Z"/>
      <path fill="#BCBACE" d="M44.9459885,87.9111504 L60.3946667,97.3784071 C62.3683448,98.5872566 63.3463333,100.92354 62.8241494,103.178407 L50.9953563,154.244779 L45.1477816,154.244779 L48.172908,104.444779 L31.8382874,96.7819469 L44.9459885,87.9111504 Z"/>
      <path fill="#8757FB" d="M69.0517678,74.6783186 C69.4385379,73.9995575 69.593423,73.2048673 69.439423,72.4393805 C67.9702276,65.109292 55.9759287,47.4730088 55.3811701,46.729646 C54.4916874,45.6181416 49.9106299,44.6181416 49.9106299,44.6181416 L49.3813655,56.7261062 L59.7931816,70.6252212 C60.491492,71.5570796 60.6561126,72.7836283 60.2259747,73.8668142 L52.3427678,93.7588496 L57.3831701,95.169469 L69.0517678,74.6783186 Z"/>
      <path fill="#37354C" d="M26.4920977,28.4315929 C26.1433851,29.5466372 25.6362471,30.8218584 24.5113391,31.1342478 C23.6227414,31.3811504 22.7031667,30.9076991 21.9455575,30.3829204 C21.5304655,30.0953097 21.0967874,29.7360177 21.0215575,29.2360177 C20.9587184,28.8174336 21.1658218,28.410354 21.3667299,28.0377876 C22.1446954,26.5970796 22.9421322,25.1475221 24.0316379,23.9253982 C24.9990057,22.8404425 26.7390287,21.0758407 27.7665805,22.9377876 C28.468431,24.210354 26.8877184,27.1661062 26.4920977,28.4315929"/>
      <path fill="#EEBCC5" d="M22.030877,93.939115 C22.030877,96.2700885 20.1412793,98.159469 17.8091529,98.159469 C15.4779115,98.159469 13.5883138,96.2700885 13.5883138,93.939115 C13.5883138,91.6072566 15.4779115,89.7178761 17.8091529,89.7178761 C20.1412793,89.7178761 22.030877,91.6072566 22.030877,93.939115"/>
      <path fill="#8757FB" d="M47.194123,16.6476106 C45.4673759,12.1157522 35.7875023,10.5847788 35.6644793,10.5635398 L35.6644793,10.5626549 L35.6618241,10.5635398 L35.659169,10.5626549 L35.659169,10.5635398 C35.536146,10.5847788 25.8562724,12.1157522 24.1295253,16.6476106 C22.3912724,21.2113274 17.1906747,34.0325664 17.4075138,37.5104425 C17.6252379,40.9865487 23.9277322,44.4635398 23.9277322,44.4635398 L29.7965483,44.4635398 C29.7965483,44.4635398 21.1026287,38.5962832 20.2335023,35.9883186 C19.3643759,33.3812389 22.6240425,30.5555752 23.4736977,29.880354 C27.1298701,23.6697345 30.6577092,19.8387611 32.9694793,17.7210619 C34.4926632,16.3254867 36.8309851,16.3254867 38.354169,17.7210619 C40.665054,19.8387611 44.1928931,23.6697345 47.8499506,29.880354 C48.6996057,30.5555752 51.9592724,33.3812389 51.090146,35.9883186 C50.2210195,38.5962832 42.4316287,44.4219469 42.4316287,44.4219469 L47.3959161,44.4635398 C47.3959161,44.4635398 53.6984103,40.9865487 53.9161345,37.5104425 C54.1329736,34.0325664 48.9323759,21.2113274 47.194123,16.6476106"/>
      <path fill="#EEBCC5" d="M58.852808,94.7022124 C58.9926471,92.3747788 57.219877,90.3747788 54.8921759,90.2349558 C52.5653598,90.0951327 50.5660149,91.8676991 50.4261759,94.1951327 C50.2854517,96.5216814 52.0582218,98.5207965 54.385923,98.6615044 C56.7127391,98.8013274 58.712969,97.0287611 58.852808,94.7022124"/>
      <path fill="#737AFB" d="M52.6419172 75.6125664L52.6419172 93.7585841C52.6419172 93.7585841 42.3938368 97.5886726 40.9299517 97.3869027 39.4651816 97.1860177 39.4651816 81.2576991 39.4651816 81.2576991L41.3476989 76.4187611 52.6419172 75.6125664zM19.7404368 75.6125664L19.7404368 93.7585841C19.7404368 93.7585841 29.9894023 97.5886726 31.4524023 97.3869027 32.9171724 97.1860177 32.9171724 81.2576991 32.9171724 81.2576991L31.0346552 76.4187611 19.7404368 75.6125664z"/>
      <path fill="#2D2C56" d="M23.1683529 154.244867L23.9737552 161.705044C23.9737552 161.705044 16.4162494 174.217434 13.4362609 174.519204 10.4580425 174.820973 11.7413759 169.543982 13.4362609 167.132478 15.132031 164.720088 18.4678126 159.660796 18.4678126 159.660796L19.7405253 154.244867 23.1683529 154.244867zM46.2018851 154.244867L45.3964828 161.705044C45.3964828 161.705044 52.9548736 174.217434 55.933092 174.519204 58.9121954 174.820973 57.6288621 169.543982 55.933092 167.132478 54.2382069 164.720088 50.9024253 159.660796 50.9024253 159.660796L49.6297126 154.244867 46.2018851 154.244867z"/>
      <path fill="#FFF" d="M17.3173264,98.9074336 L55.6376598,98.9074336 C57.0900391,98.9074336 58.352131,97.9065487 58.6822575,96.4923894 L61.9206828,82.6410619 C62.4048092,79.9578761 60.3302345,77.4941593 57.6024874,77.5145133 L13.7080621,77.8481416 C10.9803149,77.8693805 8.9437977,80.3640708 9.46863678,83.040177 L14.3709701,96.8277876 C14.8143839,98.0755752 15.9941655,98.9074336 17.3173264,98.9074336"/>
    </g>
    <g transform="translate(163.736 201.29)">
      <mask id="hdr_img-u" fill="#fff">
        <use xlink:href="#hdr_img-s"/>
      </mask>
      <path fill="url(#hdr_img-t)" fill-opacity=".05" d="M4.97225287,0.962831858 C2.2453908,0.984070796 0.207103448,3.47964602 0.732827586,6.15486726 L5.63516092,19.9424779 C6.07857471,21.1902655 7.25835632,22.0221239 8.58151724,22.0221239 L15.4584138,22.0221239 L32.0249195,0.757522124 L4.97225287,0.962831858 Z" mask="url(#hdr_img-u)"/>
    </g>
    <path fill="#737AFB" d="M194.100626,214.415664 C194.100626,216.38292 192.372994,217.977611 190.241776,217.977611 C188.109672,217.977611 186.38204,216.38292 186.38204,214.415664 C186.38204,212.448407 188.109672,210.853717 190.241776,210.853717 C192.372994,210.853717 194.100626,212.448407 194.100626,214.415664"/>
  </g>
</svg>
